<svg xmlns="http://www.w3.org/2000/svg" width="145" height="32" viewBox="0 0 145 32" fill="none"><path d="M0.245 24V22.905L2.78 22.275V2.82L0.245 2.235V1.155H10.37V2.235L7.88 2.82V22.275L10.37 22.905V24H0.245ZM12.407 24V22.95L14.627 22.365V10.935L12.452 10.095V9.42L17.912 7.965H19.127V9.9C19.837 9.31 20.667 8.84 21.617 8.49C22.577 8.14 23.537 7.965 24.497 7.965C26.507 7.965 27.837 8.74 28.487 10.29C29.197 9.59 30.077 9.03 31.127 8.61C32.187 8.18 33.252 7.965 34.322 7.965C35.852 7.965 36.982 8.415 37.712 9.315C38.442 10.215 38.807 11.63 38.807 13.56V22.365L40.892 22.95V24H32.147V22.95L34.217 22.365V14.565C34.217 13.115 34.022 12.095 33.632 11.505C33.242 10.915 32.567 10.62 31.607 10.62C30.517 10.62 29.612 10.98 28.892 11.7C28.982 12.25 29.027 12.87 29.027 13.56V22.365L31.112 22.95V24H22.337V22.95L24.422 22.365V14.565C24.422 13.135 24.212 12.115 23.792 11.505C23.372 10.885 22.672 10.575 21.692 10.575C20.702 10.575 19.882 10.885 19.232 11.505V22.365L21.317 22.95V24H12.407ZM41.8541 31.425V30.72L44.4191 29.94V10.905L41.9141 10.095V9.39L48.0641 7.965H48.7541V10.17H48.9041C49.4541 9.49 50.1741 8.955 51.0641 8.565C51.9541 8.165 52.8841 7.965 53.8541 7.965C55.1541 7.965 56.3041 8.3 57.3041 8.97C58.3041 9.63 59.0891 10.55 59.6591 11.73C60.2291 12.9 60.5141 14.245 60.5141 15.765C60.5141 17.485 60.1541 18.99 59.4341 20.28C58.7141 21.56 57.7041 22.555 56.4041 23.265C55.1141 23.965 53.5941 24.315 51.8441 24.315C51.3041 24.315 50.8091 24.275 50.3591 24.195C49.9091 24.115 49.4691 24 49.0391 23.85V29.94L52.9841 30.72V31.425H41.8541ZM51.9041 22.71C52.9741 22.71 53.8391 22.115 54.4991 20.925C55.1591 19.725 55.4891 18.175 55.4891 16.275C55.4891 14.435 55.1741 12.98 54.5441 11.91C53.9141 10.83 53.0641 10.29 51.9941 10.29C51.3841 10.29 50.7941 10.455 50.2241 10.785C49.6641 11.115 49.2691 11.535 49.0391 12.045V19.425C49.0391 20.335 49.3191 21.11 49.8791 21.75C50.4391 22.39 51.1141 22.71 51.9041 22.71ZM70.8617 24.315C69.2217 24.315 67.7867 23.985 66.5567 23.325C65.3367 22.655 64.3867 21.725 63.7067 20.535C63.0367 19.335 62.7017 17.95 62.7017 16.38C62.7017 14.71 63.0767 13.245 63.8267 11.985C64.5767 10.725 65.6167 9.74 66.9467 9.03C68.2867 8.32 69.8367 7.965 71.5967 7.965C73.8667 7.965 75.5917 8.58 76.7717 9.81C77.9617 11.03 78.5917 12.83 78.6617 15.21L78.4367 15.405H67.6517C67.6917 19.295 69.2367 21.24 72.2867 21.24C74.4267 21.24 76.1117 20.51 77.3417 19.05L78.1667 19.755C77.6367 21.195 76.7267 22.315 75.4367 23.115C74.1567 23.915 72.6317 24.315 70.8617 24.315ZM71.2217 9.48C70.2117 9.48 69.4067 9.87 68.8067 10.65C68.2067 11.42 67.8417 12.53 67.7117 13.98L73.7417 13.755C73.8217 13.545 73.8617 13.17 73.8617 12.63C73.8617 10.53 72.9817 9.48 71.2217 9.48ZM80.3764 24V22.95L82.6114 22.365V10.935L80.3464 10.095V9.39L86.4214 7.965H87.0664V10.62C87.8264 9.75 88.5764 9.085 89.3164 8.625C90.0664 8.165 90.7964 7.935 91.5064 7.935C92.2464 7.935 92.8614 8.145 93.3514 8.565C93.8414 8.985 94.0864 9.505 94.0864 10.125C94.0864 10.725 93.9064 11.23 93.5464 11.64C93.1964 12.04 92.7614 12.24 92.2414 12.24C91.7214 12.24 91.2314 12.055 90.7714 11.685C90.2014 11.205 89.7064 10.965 89.2864 10.965C88.9864 10.965 88.6364 11.1 88.2364 11.37C87.8464 11.64 87.4964 11.97 87.1864 12.36V22.365L91.0864 22.95V24H80.3764ZM99.7341 5.745C98.9141 5.745 98.2841 5.49 97.8441 4.98C97.4041 4.47 97.1841 3.915 97.1841 3.315C97.1841 2.665 97.4091 2.09 97.8591 1.59C98.3191 1.09 98.9441 0.84 99.7341 0.84C100.544 0.84 101.184 1.09 101.654 1.59C102.134 2.09 102.374 2.665 102.374 3.315C102.374 3.915 102.149 4.47 101.699 4.98C101.259 5.49 100.604 5.745 99.7341 5.745ZM94.9491 24V22.95L97.4841 22.365V10.905L94.9491 10.095V9.39L101.459 7.965H102.089V22.365L104.459 22.95V24H94.9491ZM114.478 24.315C112.668 24.315 111.128 23.945 109.858 23.205C108.598 22.465 107.638 21.475 106.978 20.235C106.328 18.995 106.003 17.63 106.003 16.14C106.003 14.64 106.328 13.275 106.978 12.045C107.638 10.805 108.598 9.815 109.858 9.075C111.128 8.335 112.668 7.965 114.478 7.965C116.288 7.965 117.818 8.335 119.068 9.075C120.328 9.815 121.288 10.805 121.948 12.045C122.608 13.275 122.938 14.64 122.938 16.14C122.938 17.63 122.608 18.995 121.948 20.235C121.288 21.475 120.328 22.465 119.068 23.205C117.818 23.945 116.288 24.315 114.478 24.315ZM114.478 22.785C115.198 22.785 115.783 22.575 116.233 22.155C116.693 21.725 117.043 21.17 117.283 20.49C117.533 19.81 117.703 19.09 117.793 18.33C117.893 17.56 117.943 16.83 117.943 16.14C117.943 15.46 117.898 14.735 117.808 13.965C117.718 13.195 117.548 12.475 117.298 11.805C117.058 11.125 116.708 10.575 116.248 10.155C115.798 9.725 115.208 9.51 114.478 9.51C113.748 9.51 113.153 9.725 112.693 10.155C112.233 10.575 111.878 11.125 111.628 11.805C111.388 12.475 111.223 13.195 111.133 13.965C111.043 14.735 110.998 15.46 110.998 16.14C110.998 16.83 111.043 17.56 111.133 18.33C111.223 19.09 111.388 19.81 111.628 20.49C111.878 21.17 112.233 21.725 112.693 22.155C113.153 22.575 113.748 22.785 114.478 22.785ZM124.82 24V22.95L127.055 22.365V10.935L124.79 10.095V9.42L130.85 7.965H131.51V10.14C132.2 9.48 133.01 8.955 133.94 8.565C134.87 8.165 135.9 7.965 137.03 7.965C140.21 7.965 141.8 9.705 141.8 13.185V22.365L144.035 22.95V24H135.11V22.95L137.195 22.365V14.235C137.195 11.845 136.215 10.65 134.255 10.65C133.195 10.65 132.32 11.035 131.63 11.805V22.365L133.73 22.95V24H124.82Z" fill="#F7F7F7"></path></svg>